<?xml version="1.0" encoding="utf-8"?>
<!-- Generator: Adobe Illustrator 23.0.0, SVG Export Plug-In . SVG Version: 6.00 Build 0)  -->
<svg version="1.1" id="Layer_1" xmlns="http://www.w3.org/2000/svg" xmlns:xlink="http://www.w3.org/1999/xlink" x="0px" y="0px"
	 width="124.1px" height="224.3px" viewBox="0 0 124.1 224.3" style="enable-background:new 0 0 124.1 224.3;" xml:space="preserve"
	>
<style type="text/css">
	.st0{fill:#CB333B;}
	.st1{fill:none;stroke:#000000;stroke-width:0.5669;stroke-linecap:round;stroke-linejoin:round;stroke-miterlimit:10;}
	.st2{fill:#FFFFFF;}
</style>
<g id="ARC_8_">
	<path class="st0" d="M10.3,224.1L60.2,213c1.2-0.3,2.5-0.3,3.7,0l49.8,11.1c4.6,1,9.1-1.9,10.1-6.5c0.2-1,0.3-2.1,0.1-3.1
		L104.9,87.4c-0.2-1.5-0.9-2.9-1.8-4.1C85.6,61.9,75.3,35.6,73.6,8c-0.3-4.5-4-8-8.5-8h-6.2c-4.5,0-8.2,3.5-8.5,8
		c-1.7,27.6-12,53.9-29.5,75.3c-1,1.2-1.6,2.6-1.8,4.1L0.1,214.5c-0.7,4.6,2.5,9,7.1,9.7C8.3,224.3,9.3,224.3,10.3,224.1z"/>
</g>
<g id="ARC_12_">
	<path class="st1" d="M80.5,84.3c4.3,2.7,7.9,6.4,10.7,10.7c10.2,16.1,5.4,37.3-10.7,47.5s-37.3,5.4-47.5-10.7s-5.4-37.3,10.7-47.5
		c2.2-1.4,3.7-3.7,3.9-6.4c0.7-6.9,6.2-12.4,13.1-13.1c8-0.8,15.2,5.1,16,13.1C76.8,80.6,78.3,82.9,80.5,84.3z"/>
</g>
<path class="st2" d="M41.1,180.6h-9.2v4.9h5.3c0.8,0,1.4,0.6,1.4,1.4s-0.6,1.4-1.4,1.4h-5.3v6.9c0,0.8-0.7,1.5-1.5,1.5
	s-1.5-0.6-1.5-1.5v-15.9c0-0.8,0.6-1.5,1.5-1.5h10.7c0.8,0,1.4,0.6,1.4,1.4S41.9,180.6,41.1,180.6z"/>
<path class="st2" d="M53.5,196.8c-4.7,0-7.8-3.1-7.8-7.9V179c0-0.8,0.6-1.5,1.5-1.5c0.8,0,1.5,0.7,1.5,1.5v10.3
	c0,2.8,1.7,4.8,4.8,4.8s4.8-1.9,4.8-4.8V179c0-0.8,0.7-1.5,1.5-1.5s1.5,0.7,1.5,1.5v9.9C61.3,193.7,58.2,196.8,53.5,196.8z"/>
<path class="st2" d="M78.8,196.4c-8,0-10.8,0-10.8,0c-0.8,0-1.5-0.7-1.5-1.5v-15.7c0-0.8,0.7-1.5,1.5-1.5h10.4
	c0.8,0,1.4,0.6,1.4,1.4s-0.6,1.4-1.4,1.4h-8.9v4.9h5c0.8,0,1.4,0.6,1.4,1.4s-0.6,1.4-1.4,1.4h-5v5.3h9.3c0.8,0,1.4,0.6,1.4,1.4
	C80.2,195.8,79.6,196.4,78.8,196.4z"/>
<path class="st2" d="M96.1,196.4c-7.7,0-10.5,0-10.5,0c-0.8,0-1.5-0.7-1.5-1.5V179c0-0.8,0.7-1.5,1.5-1.5s1.5,0.7,1.5,1.5v14.6h9
	c0.8,0,1.4,0.6,1.4,1.4S96.9,196.4,96.1,196.4z"/>
<circle cx="62" cy="112.1" r="11.3"/>
<polygon class="st2" points="64.2,108.5 59.9,108.5 57.8,112.1 59.9,115.8 64.2,115.8 66.3,112.1 "/>
</svg>
